<svg width="300" height="70" xmlns="http://www.w3.org/2000/svg" xml:space="preserve" version="1.1">

 <g>
  <title>Layer 1</title>
  <g opacity="0.95" stroke="null" id="svg_1">
   <path fill="#5656ff" stroke="#000000" id="svg_2" clip-rule="evenodd" fill-rule="evenodd" d="m37.28372,8.20097l7.77702,0c0.78108,0 1.41861,0.79639 1.41861,1.7721l0,7.82677l-10.61424,0l0,-7.82677c0,-0.97571 0.63753,-1.7721 1.41861,-1.7721l0,0zm9.19986,14.38249l0,23.83369l-10.61847,0l0,-23.83369l10.61847,0l0,0zm0,28.62257l0,7.27827c0,0.97571 -0.63753,1.7721 -1.41861,1.7721l-7.78125,0c-0.78108,0 -1.41861,-0.79639 -1.41861,-1.7721l0,-7.27827l10.61847,0l0,0z" class="st0"/>
   <path fill="#5656ff" stroke="#000000" id="svg_3" clip-rule="evenodd" fill-rule="evenodd" d="m52.74067,8.20097l7.77702,0c0.78108,0 1.41861,0.79639 1.41861,1.7721l0,7.82677l-0.00844,0l-10.6058,0l0,-7.82677c0,-0.97571 0.64175,-1.7721 1.41861,-1.7721l0,0zm9.19986,14.38249l0,23.83369l-10.61847,0l0,-23.83369l10.61002,0l0.00844,0l0,0zm0,28.62257l0,7.27827c0,0.97571 -0.63753,1.7721 -1.41861,1.7721l-7.77702,0c-0.78108,0 -1.41861,-0.79639 -1.41861,-1.7721l0,-7.27827l10.61424,0l0,0z" class="st0"/>
   <path fill="#5656ff" stroke="#000000" id="svg_4" clip-rule="evenodd" fill-rule="evenodd" d="m25.2382,8.10603l7.30838,3.32269c0.73464,0.33227 1.11462,1.35545 0.84863,2.27314l-2.14058,7.3521l-9.97671,-4.53573l2.14058,-7.3521c0.27021,-0.91769 1.08929,-1.39236 1.81971,-1.0601l0,0zm4.70759,17.44674l-6.52307,22.39913l-9.97671,-4.53573l6.52307,-22.39386l9.97671,4.53046l0,0zm-7.83191,26.89794l-1.99281,6.83524c-0.26599,0.91769 -1.08507,1.39236 -1.81971,1.0601l-7.30838,-3.32269c-0.73464,-0.33227 -1.11462,-1.35545 -0.84863,-2.27314l1.99281,-6.83524l9.97671,4.53573l0,0z" class="st0"/>
  </g>
  <text style="cursor: move;" transform="matrix(1.53477 0 0 1.44898 -40.6425 -10.2451)" stroke="#56aaff" xml:space="preserve" text-anchor="start" font-family="Noto Sans JP" font-size="24" id="svg_6" y="38.57028" x="75.94" stroke-width="0" fill="#000000">3TBooKStore</text>
 </g>
</svg>